<svg id="Capa_1" enable-background="new 0 0 512 512" height="512" viewBox="0 0 512 512" width="512" xmlns="http://www.w3.org/2000/svg"><g><g><path d="m87.661 328.145h-16.032c-22.136 0-40.081-17.945-40.081-40.081 0-13.282 10.767-24.048 24.048-24.048h32.065z" fill="#50aaa0"/><path d="m475.756 82.965-70.772-70.769c-3.007-3.007-7.085-4.695-11.336-4.695h-297.971c-8.854 0-16.032 7.178-16.032 16.032v244.801l16.032 236.166h368.742c8.854 0 16.032-7.178 16.032-16.032v-394.166c.001-4.252-1.688-8.33-4.695-11.337z" fill="#e9f6ff"/><path d="m480.452 94.302c0-4.252-1.689-8.33-4.696-11.337l-70.772-70.769c-3.007-3.007-7.085-4.695-11.336-4.695h-1.373v80.161c0 4.427 3.589 8.016 8.016 8.016h80.161z" fill="#d9edff"/><path d="m368.226 256h-174.695c-3.571 0-5.359-4.317-2.834-6.842l47.993-47.993c5.404-5.404 13.871-6.242 20.23-2.003l13.112 8.742 44.776-44.776c6.261-6.261 16.412-6.261 22.673 0l32.065 32.065c3.007 3.007 4.696 7.085 4.696 11.337v41.456c0 4.425-3.589 8.014-8.016 8.014z" fill="#8ce1a4"/><circle cx="219.927" cy="139.766" fill="#fff" r="28.056"/><path d="m103.694 464.419v-456.919h-8.016c-8.854 0-16.032 7.178-16.032 16.032v464.935c0 8.854 7.179 16.032 16.032 16.032h368.742c8.854 0 16.032-7.178 16.032-16.032v-8.016h-360.726c-8.84.001-16.032-7.192-16.032-16.032z" fill="#d9edff"/><path d="m304.097 312.113h-248.5c-13.282 0-24.048-10.767-24.048-24.048v144.29c0 13.282 10.767 24.048 24.048 24.048h248.5c8.854 0 16.032-7.178 16.032-16.032v-112.226c0-8.855-7.178-16.032-16.032-16.032z" fill="#8ce1a4"/><g fill="#78c2a4"><path d="m55.597 456.403h248.5c8.854 0 16.032-7.178 16.032-16.032v-8.016h-248.5c-8.84 0-16.032-7.192-16.032-16.032v-104.21c-13.282 0-24.048-10.767-24.048-24.048v144.29c-.001 13.281 10.766 24.048 24.048 24.048z"/><path d="m255.598 218.267 12.792-12.792-9.47-6.314c-6.359-4.239-14.826-3.401-20.23 2.003l-47.993 47.993c-2.525 2.525-.737 6.842 2.834 6.842h174.695c4.427 0 8.016-3.589 8.016-8.016v-16.032h-114.976c-7.142.001-10.718-8.634-5.668-13.684z"/></g></g><g><path d="m481.059 77.662-70.772-70.77c-4.445-4.444-10.354-6.892-16.64-6.892h-297.97c-12.975 0-23.532 10.557-23.532 23.532v232.984h-16.548c-17.396 0-31.548 14.153-31.548 31.548v144.29c0 17.396 14.152 31.549 31.548 31.549h248.5c12.976 0 23.532-10.557 23.532-23.532v-112.225c0-12.976-10.557-23.533-23.532-23.533h-248.5c-9.125 0-16.548-7.423-16.548-16.548s7.423-16.548 16.548-16.548h16.548v8.535c0 4.142 3.358 7.5 7.5 7.5s7.5-3.358 7.5-7.5v-256.52c0-4.705 3.828-8.532 8.532-8.532h289.097v72.661c0 8.556 6.96 15.517 15.516 15.517h72.661v385.29c0 4.705-3.828 8.532-8.532 8.532h-368.742c-4.705 0-8.532-3.827-8.532-8.532 0-4.142-3.358-7.5-7.5-7.5s-7.5 3.358-7.5 7.5c0 12.976 10.557 23.532 23.532 23.532h368.742c12.976 0 23.532-10.557 23.532-23.532v-394.166c.001-6.285-2.447-12.195-6.892-16.64zm-425.462 241.951h248.5c4.705 0 8.532 3.828 8.532 8.533v112.226c0 4.705-3.828 8.532-8.532 8.532h-248.5c-9.125 0-16.548-7.424-16.548-16.549v-117.44c4.813 2.979 10.483 4.698 16.548 4.698zm344.177-231.952v-70.068l70.587 70.585h-70.071c-.284 0-.516-.232-.516-.517z"/><path d="m86.313 419.324c3.249 2.371 7.867 4.531 13.049 4.531 2.947 0 6.076-.699 9.238-2.455 6.451-3.581 10.458-10.459 10.458-17.952v-51.255c0-4.219-3.483-7.624-7.731-7.496-4.105.123-7.269 3.704-7.269 7.811v50.94c0 2.046-1.049 3.899-2.737 4.837-2.385 1.324-5.044-.256-6.326-1.225-.624-.471-1.323-.827-2.065-1.075-5.245-1.752-10.499 2.635-9.709 8.108.3 2.085 1.391 3.99 3.092 5.231z"/><path d="m241.347 423.822c20.713 0 35.18-16.27 35.18-39.564 0-4.142-3.358-7.5-7.5-7.5h-19.184c-4.142 0-7.5 3.358-7.5 7.5 0 4.143 3.358 7.5 7.5 7.5h10.891c-1.958 8.957-7.729 17.064-19.387 17.064-13.545 0-24.564-11.02-24.564-24.564s11.02-24.564 24.564-24.564c4.923 0 9.671 1.449 13.729 4.191 3.431 2.319 8.095 1.417 10.413-2.016 2.319-3.432 1.417-8.094-2.016-10.413-6.547-4.423-14.198-6.762-22.126-6.762-21.816 0-39.564 17.749-39.564 39.564-.001 21.816 17.748 39.564 39.564 39.564z"/><path d="m145.041 423.822c4.142 0 7.5-3.357 7.5-7.5v-20.396c3.724-.02 7.957-.039 10.356-.039 14.31 0 25.952-11.482 25.952-25.597s-11.642-25.598-25.952-25.598h-17.856c-1.993 0-3.905.794-5.312 2.205-1.407 1.412-2.195 3.326-2.188 5.319v64.104c0 4.145 3.358 7.502 7.5 7.502zm17.856-64.129c5.937 0 10.952 4.854 10.952 10.598s-5.015 10.597-10.952 10.597c-2.382 0-6.563.019-10.273.038-.02-3.831-.05-17.224-.061-21.232h10.334z"/><path d="m176.926 258.87c1.161 2.803 3.896 4.63 6.929 4.63h192.387c4.142 0 7.5-3.358 7.5-7.5v-56.113c0-1.989-.79-3.897-2.197-5.303l-36.76-36.76c-4.444-4.445-10.354-6.893-16.64-6.893-6.285 0-12.195 2.448-16.64 6.893l-40.429 40.428-7.997-5.331c-9.301-6.2-21.789-4.964-29.693 2.94l-54.835 54.835c-2.144 2.146-2.786 5.371-1.625 8.174zm67.067-52.402c2.866-2.866 7.393-3.315 10.767-1.066l13.112 8.741c2.975 1.983 6.936 1.591 9.463-.937l44.776-44.776c1.612-1.612 3.754-2.5 6.033-2.5s4.421.887 6.033 2.499l34.563 34.564v45.507h-166.78z"/><path d="m255.484 139.766c0-19.606-15.951-35.556-35.557-35.556s-35.556 15.95-35.556 35.556 15.95 35.556 35.556 35.556 35.557-15.95 35.557-35.556zm-56.113 0c0-11.334 9.222-20.556 20.556-20.556 11.335 0 20.557 9.222 20.557 20.556s-9.222 20.556-20.557 20.556c-11.334 0-20.556-9.221-20.556-20.556z"/></g></g></svg>