<svg id="Capa_1" enable-background="new 0 0 511.943 511.943" height="512" viewBox="0 0 511.943 511.943" width="512" xmlns="http://www.w3.org/2000/svg"><g><g><g><g><path d="m255.965 459.316c-54.306 0-105.36-21.148-143.76-59.547s-59.547-89.454-59.547-143.76 21.148-105.36 59.547-143.76 89.454-59.547 143.76-59.547 105.36 21.148 143.76 59.547 59.547 89.454 59.547 143.76-21.148 105.36-59.547 143.76-89.455 59.547-143.76 59.547zm0-318.254c-63.382 0-114.948 51.565-114.948 114.947s51.565 114.948 114.948 114.948 114.947-51.565 114.947-114.948-51.565-114.947-114.947-114.947z" fill="#ffe9d9"/></g></g><g><path d="m459.272 256.009c0 54.31-21.15 105.356-59.546 143.762-38.406 38.396-89.452 59.546-143.762 59.546-7.797 0-15.522-.434-23.153-1.291 45.542-5.133 87.718-25.363 120.609-58.255 38.406-38.406 59.546-89.453 59.546-143.762 0-54.31-21.139-105.356-59.546-143.762-32.892-32.892-75.067-53.122-120.609-58.255 7.632-.857 15.356-1.291 23.153-1.291 54.31 0 105.356 21.15 143.762 59.546 38.397 38.406 59.546 89.452 59.546 143.762z" fill="#fddbbf"/></g><g><g fill="#fb8627"><path d="m459.272 256.009c0 26.884-5.179 52.974-15.078 77.126l-88.694-19.684c9.801-16.911 15.414-36.53 15.414-57.441 0-21.648-6.013-41.905-16.453-59.209l89.521-18.441c10.029 24.298 15.29 50.569 15.29 77.649z"/><path d="m333.09 444.238c-24.151 9.899-50.242 15.078-77.126 15.078s-52.974-5.179-77.126-15.078l19.684-88.695c16.911 9.801 36.53 15.414 57.441 15.414s40.531-5.612 57.441-15.414z"/><path d="m141.016 256.009c0 20.912 5.612 40.531 15.414 57.441l-88.695 19.684c-9.899-24.151-15.078-50.242-15.078-77.126s5.179-52.974 15.078-77.126l88.695 19.684c-9.801 16.912-15.414 36.531-15.414 57.443z"/><path d="m333.09 67.78-19.684 88.694c-16.911-9.801-36.53-15.414-57.441-15.414s-40.531 5.612-57.441 15.414l-19.685-88.694c24.151-9.899 50.242-15.078 77.126-15.078s52.974 5.178 77.125 15.078z"/></g><g fill="#fb7722"><path d="m328.016 421.376 5.07 22.864c-24.144 9.893-50.241 15.078-77.122 15.078-7.787 0-15.501-.434-23.122-1.291 34.524-3.905 67.105-16.473 95.174-36.651z"/><path d="m255.965 52.701c26.881 0 52.978 5.184 77.122 15.077l-5.07 22.864c-28.069-20.179-60.651-32.747-95.174-36.651 7.621-.856 15.335-1.29 23.122-1.29z"/><path d="m459.272 256.009c0 26.881-5.184 52.978-15.077 77.122l-42.702-9.48c7.549-21.439 11.473-44.231 11.473-67.642 0-23.835-4.069-47.029-11.886-68.809l42.898-8.84c10.038 24.3 15.294 50.572 15.294 77.649z"/></g></g></g><path d="m508.913 286.161c-2.534-8.949-6.334-15.018-10.467-19.126 2.158-3.361 3.353-7.083 3.353-11.026 0-8.504-5.536-15.987-14.392-21.001.571-7.513 1.641-15.711 2.765-24.251 2.971-22.553 6.338-48.113 2.564-74.421-4.438-30.944-17.92-56.647-41.214-78.58-22.31-21.005-52.581-38.203-85.236-48.426-30.514-9.553-59.51-11.9-79.552-6.44-9.297 2.533-15.545 6.42-19.74 10.64-3.362-2.159-7.086-3.355-11.03-3.355-8.504 0-15.987 5.536-21.001 14.392-7.513-.571-15.711-1.641-24.251-2.765-22.553-2.972-48.114-6.342-74.421-2.564-30.944 4.438-56.647 17.92-78.58 41.214-46.529 49.42-66.798 129.556-53.835 168.19 2.49 7.42 5.887 12.661 9.597 16.354-2.152 3.358-3.344 7.075-3.344 11.013 0 8.504 5.536 15.987 14.392 21.001-.571 7.513-1.641 15.711-2.765 24.251-2.971 22.552-6.338 48.114-2.564 74.421 4.438 30.944 17.92 56.647 41.214 78.58 39.577 37.263 98.848 57.681 140.732 57.681 10.416 0 19.764-1.264 27.458-3.846 7.42-2.49 12.661-5.887 16.354-9.597 3.358 2.152 7.075 3.344 11.013 3.344 8.504 0 15.987-5.537 21.001-14.392 7.513.571 15.711 1.64 24.251 2.765 15.395 2.028 32.191 4.24 49.67 4.24 8.127 0 16.401-.478 24.751-1.676 30.944-4.438 56.647-17.92 78.58-41.214 45.998-48.854 65.744-126.381 54.697-165.406zm-42.487-42.302c1.947.249 3.806.606 5.55 1.057v.023c0 4.143 3.357 7.5 7.5 7.5 1.719 0 3.297-.584 4.562-1.556 1.769 1.662 2.761 3.434 2.761 5.127 0 1.164-.474 2.365-1.34 3.543-3.936-.955-7.943 1.39-9.005 5.326-.076.282-.131.564-.173.846-2.869 1.114-6.21 1.971-9.864 2.437.228-4.031.356-8.081.356-12.151-.001-4.074-.123-8.124-.347-12.152zm-175.75-226.496c35.169-9.579 107.031 10.328 150.563 51.315 46.724 43.99 39.703 97.292 34.062 140.12-.953 7.23-1.865 14.225-2.495 20.898-2.488-.505-5.085-.857-7.765-1.052-4.848-37.999-19.827-73.47-44.043-103.818-2.584-3.238-7.302-3.769-10.54-1.185-3.238 2.583-3.769 7.303-1.185 10.54 9.644 12.086 17.708 25.051 24.131 38.699l-75.406 15.533c-6.185-9.317-13.656-17.827-22.264-25.234-4.388-3.777-9.02-7.212-13.848-10.302l16.533-74.496c16.931 7.859 32.771 18.156 46.977 30.707 3.104 2.74 7.843 2.448 10.587-.655 2.742-3.104 2.449-7.844-.655-10.587-31.553-27.875-70.568-45.457-111.995-50.859-.61-8.507-2.86-16.162-6.278-22.263 2.843-3.196 7.392-5.664 13.621-7.361zm-34.711 434.454c-23.731 0-46.812-4.207-68.407-12.242l16.165-72.838c15.854 7.51 33.565 11.72 52.242 11.72 18.192 0 36.018-4.07 52.238-11.738l16.169 72.856c-21.595 8.035-44.677 12.242-68.407 12.242zm-153.489-126.392c-.897-4.043-4.902-6.59-8.947-5.697l-21.13 4.689c-8.036-21.596-12.242-44.677-12.242-68.408s4.207-46.812 12.242-68.408l72.839 16.165c-7.511 15.854-11.721 33.565-11.721 52.242s4.21 36.388 11.721 52.243l-16.692 3.705c-4.044.897-6.595 4.903-5.697 8.947.776 3.497 3.876 5.877 7.315 5.877.538 0 1.085-.059 1.632-.18l21.024-4.666c9.573 14.925 22.294 27.647 37.22 37.219l-16.545 74.549c-20.551-9.553-39.484-22.736-55.986-39.238s-29.686-35.435-39.238-55.985l18.509-4.107c4.043-.897 6.594-4.903 5.696-8.947zm153.489-265.224c23.58 0 46.715 4.236 68.393 12.308l-16.155 72.791c-16.222-7.669-34.053-11.738-52.238-11.738-18.677 0-36.388 4.21-52.242 11.72l-16.166-72.838c21.596-8.036 44.677-12.243 68.408-12.243zm-82.471 18.114 16.545 74.549c-14.925 9.573-27.647 22.294-37.22 37.22l-74.549-16.545c9.553-20.551 22.736-39.484 39.238-55.986s35.436-29.686 55.986-39.238zm164.941 355.388-16.548-74.563c4.926-3.154 9.648-6.666 14.117-10.533 9.011-7.799 16.77-16.802 23.096-26.675l74.559 16.547c-9.553 20.551-22.736 39.484-39.238 55.986s-35.435 29.686-55.986 39.238zm101.095-109.286-72.844-16.167c4.996-10.549 8.487-21.815 10.289-33.473.633-4.094-2.173-7.925-6.267-8.558-4.103-.628-7.926 2.174-8.558 6.267-8.014 51.861-53.663 90.97-106.186 90.97-59.247 0-107.447-48.2-107.447-107.447s48.2-107.447 107.447-107.447c52.199 0 97.803 38.835 106.079 90.333.657 4.088 4.497 6.878 8.596 6.215 4.089-.657 6.872-4.506 6.215-8.596-1.931-12.012-5.664-23.6-10.984-34.407l73.488-15.138c8.191 21.764 12.414 45.009 12.414 69.04 0 23.731-4.207 46.812-12.242 68.408zm-183.565-299.242c1.17 0 2.377.478 3.56 1.353-.687 3.737 1.553 7.461 5.28 8.547.23.067.46.119.69.164 1.203 2.972 2.131 6.472 2.622 10.325-4.036-.232-8.087-.362-12.152-.362-4.07 0-8.12.128-12.151.356.249-1.95.606-3.812 1.058-5.559h.023c4.143 0 7.5-3.357 7.5-7.5 0-1.719-.584-3.297-1.556-4.562 1.661-1.769 3.433-2.762 5.126-2.762zm-187.332 45.56c43.99-46.726 97.292-39.704 140.12-34.062 7.23.953 14.225 1.865 20.898 2.495-.507 2.497-.86 5.104-1.054 7.793-45.938 5.919-88.405 26.692-121.696 59.984s-54.065 75.758-59.984 121.696c-8.487.613-16.126 2.856-22.217 6.264-2.742-2.438-4.953-6.119-6.603-11.036-11.378-33.91 8.219-108.189 50.536-153.134zm-39.596 182.295c.425.072.847.106 1.264.106 3.591 0 6.765-2.588 7.386-6.246.077-.454.105-.905.1-1.35 2.347-.749 4.947-1.328 7.727-1.683-.228 4.031-.356 8.081-.356 12.151s.128 8.12.356 12.151c-1.95-.249-3.812-.606-5.559-1.058 0-.007 0-.015 0-.023 0-4.143-3.357-7.5-7.5-7.5-1.719 0-3.297.584-4.562 1.556-1.769-1.662-2.761-3.434-2.761-5.127 0-1.161.472-2.36 1.334-3.535.879.232 1.74.417 2.571.558zm194.789 240.846c-33.911 11.374-108.19-8.217-153.136-50.536-46.724-43.99-39.703-97.292-34.062-140.12.953-7.23 1.865-14.225 2.495-20.898 2.497.507 5.104.86 7.793 1.054 5.919 45.938 26.692 88.405 59.984 121.696s75.758 54.065 121.696 59.984c.613 8.487 2.856 16.126 6.264 22.217-2.436 2.742-6.118 4.953-11.034 6.603zm32.139-7.033c-1.161 0-2.36-.472-3.535-1.334.231-.88.415-1.741.556-2.572.692-4.084-2.057-7.956-6.14-8.649-.454-.077-.905-.106-1.35-.101-.749-2.347-1.328-4.946-1.682-7.726 4.031.228 8.081.356 12.151.356s8.12-.128 12.151-.356c-.249 1.95-.606 3.812-1.058 5.559-.007 0-.015 0-.023 0-4.143 0-7.5 3.357-7.5 7.5 0 1.719.584 3.297 1.556 4.562-1.662 1.768-3.434 2.761-5.126 2.761zm187.331-45.559c-43.991 46.725-97.293 39.702-140.12 34.062-7.23-.953-14.225-1.865-20.898-2.496.507-2.497.86-5.104 1.054-7.793 45.938-5.919 88.405-26.692 121.696-59.984s54.065-75.758 59.984-121.696c8.495-.613 16.139-2.86 22.233-6.273 3.115 2.77 5.541 7.158 7.235 13.144 9.932 35.085-9.847 107.132-51.184 151.036z"/></g></svg>